<?xml version="1.0" encoding="utf-8"?>
<svg xmlns="http://www.w3.org/2000/svg" version="1.1"  xmlns:xlink="http://www.w3.org/1999/xlink" width="2000" height="2000" viewBox="0 0 2000 2000">

<line x1="0" y1="0" x2="2000" y2="0" stroke="lightgrey" />
<text x="5" y="-5" fill="lightgrey" >0</text>
<line x1="0" y1="100" x2="2000" y2="100" stroke="lightgrey" />
<text x="5" y="95" fill="lightgrey" >100</text>
<line x1="0" y1="200" x2="2000" y2="200" stroke="lightgrey" />
<text x="5" y="195" fill="lightgrey" >200</text>
<line x1="0" y1="300" x2="2000" y2="300" stroke="lightgrey" />
<text x="5" y="295" fill="lightgrey" >300</text>
<line x1="0" y1="400" x2="2000" y2="400" stroke="lightgrey" />
<text x="5" y="395" fill="lightgrey" >400</text>
<line x1="0" y1="500" x2="2000" y2="500" stroke="lightgrey" />
<text x="5" y="495" fill="lightgrey" >500</text>
<line x1="0" y1="600" x2="2000" y2="600" stroke="lightgrey" />
<text x="5" y="595" fill="lightgrey" >600</text>
<line x1="0" y1="700" x2="2000" y2="700" stroke="lightgrey" />
<text x="5" y="695" fill="lightgrey" >700</text>
<line x1="0" y1="800" x2="2000" y2="800" stroke="lightgrey" />
<text x="5" y="795" fill="lightgrey" >800</text>
<line x1="0" y1="900" x2="2000" y2="900" stroke="lightgrey" />
<text x="5" y="895" fill="lightgrey" >900</text>
<line x1="0" y1="1000" x2="2000" y2="1000" stroke="lightgrey" />
<text x="5" y="995" fill="lightgrey" >1000</text>
<line x1="0" y1="1100" x2="2000" y2="1100" stroke="lightgrey" />
<text x="5" y="1095" fill="lightgrey" >1100</text>
<line x1="0" y1="1200" x2="2000" y2="1200" stroke="lightgrey" />
<text x="5" y="1195" fill="lightgrey" >1200</text>
<line x1="0" y1="1300" x2="2000" y2="1300" stroke="lightgrey" />
<text x="5" y="1295" fill="lightgrey" >1300</text>
<line x1="0" y1="1400" x2="2000" y2="1400" stroke="lightgrey" />
<text x="5" y="1395" fill="lightgrey" >1400</text>
<line x1="0" y1="1500" x2="2000" y2="1500" stroke="lightgrey" />
<text x="5" y="1495" fill="lightgrey" >1500</text>
<line x1="0" y1="1600" x2="2000" y2="1600" stroke="lightgrey" />
<text x="5" y="1595" fill="lightgrey" >1600</text>
<line x1="0" y1="1700" x2="2000" y2="1700" stroke="lightgrey" />
<text x="5" y="1695" fill="lightgrey" >1700</text>
<line x1="0" y1="1800" x2="2000" y2="1800" stroke="lightgrey" />
<text x="5" y="1795" fill="lightgrey" >1800</text>
<line x1="0" y1="1900" x2="2000" y2="1900" stroke="lightgrey" />
<text x="5" y="1895" fill="lightgrey" >1900</text>
<line x1="0" y1="2000" x2="2000" y2="2000" stroke="lightgrey" />
<text x="5" y="1995" fill="lightgrey" >2000</text>
<line x1="0" y1="0" x2="0" y2="2000" stroke="lightgrey" />
<text x="5" y="15" fill="lightgrey" >0</text>
<line x1="100" y1="0" x2="100" y2="2000" stroke="lightgrey" />
<text x="105" y="15" fill="lightgrey" >100</text>
<line x1="200" y1="0" x2="200" y2="2000" stroke="lightgrey" />
<text x="205" y="15" fill="lightgrey" >200</text>
<line x1="300" y1="0" x2="300" y2="2000" stroke="lightgrey" />
<text x="305" y="15" fill="lightgrey" >300</text>
<line x1="400" y1="0" x2="400" y2="2000" stroke="lightgrey" />
<text x="405" y="15" fill="lightgrey" >400</text>
<line x1="500" y1="0" x2="500" y2="2000" stroke="lightgrey" />
<text x="505" y="15" fill="lightgrey" >500</text>
<line x1="600" y1="0" x2="600" y2="2000" stroke="lightgrey" />
<text x="605" y="15" fill="lightgrey" >600</text>
<line x1="700" y1="0" x2="700" y2="2000" stroke="lightgrey" />
<text x="705" y="15" fill="lightgrey" >700</text>
<line x1="800" y1="0" x2="800" y2="2000" stroke="lightgrey" />
<text x="805" y="15" fill="lightgrey" >800</text>
<line x1="900" y1="0" x2="900" y2="2000" stroke="lightgrey" />
<text x="905" y="15" fill="lightgrey" >900</text>
<line x1="1000" y1="0" x2="1000" y2="2000" stroke="lightgrey" />
<text x="1005" y="15" fill="lightgrey" >1000</text>
<line x1="1100" y1="0" x2="1100" y2="2000" stroke="lightgrey" />
<text x="1105" y="15" fill="lightgrey" >1100</text>
<line x1="1200" y1="0" x2="1200" y2="2000" stroke="lightgrey" />
<text x="1205" y="15" fill="lightgrey" >1200</text>
<line x1="1300" y1="0" x2="1300" y2="2000" stroke="lightgrey" />
<text x="1305" y="15" fill="lightgrey" >1300</text>
<line x1="1400" y1="0" x2="1400" y2="2000" stroke="lightgrey" />
<text x="1405" y="15" fill="lightgrey" >1400</text>
<line x1="1500" y1="0" x2="1500" y2="2000" stroke="lightgrey" />
<text x="1505" y="15" fill="lightgrey" >1500</text>
<line x1="1600" y1="0" x2="1600" y2="2000" stroke="lightgrey" />
<text x="1605" y="15" fill="lightgrey" >1600</text>
<line x1="1700" y1="0" x2="1700" y2="2000" stroke="lightgrey" />
<text x="1705" y="15" fill="lightgrey" >1700</text>
<line x1="1800" y1="0" x2="1800" y2="2000" stroke="lightgrey" />
<text x="1805" y="15" fill="lightgrey" >1800</text>
<line x1="1900" y1="0" x2="1900" y2="2000" stroke="lightgrey" />
<text x="1905" y="15" fill="lightgrey" >1900</text>
<line x1="2000" y1="0" x2="2000" y2="2000" stroke="lightgrey" />
<text x="2005" y="15" fill="lightgrey" >2000</text>
<circle id="Soleil" cx="1000" cy="1000" r="30" fill="url(#yellowball)" transform="scale(-1,1)translate(-1000,-1000)"/>
<path id="motionPathSoleil" fill="none" stroke="black" d="M 1000 1000 a 0 0 0 0 0 0 0  a0 0 0 0 0 0 0 Z"/>
<animateMotion xlink:href="#Soleil" dur="0" begin="0s" fill="freeze" repeatCount="indefinite" rotate="auto" >
<mpath xlink:href="#motionPathSoleil" />
</animateMotion >
<text x="1000" y="1000" fill="black" >Soleil</text>
<circle id="Mercure" cx="1040" cy="1000" r="7" fill="url(#greyball)" transform="scale(-1,1)translate(-1040,-1000)"/>
<path id="motionPathMercure" fill="none" stroke="black" d="M 1040 1000 a 40 40 0 0 0 -80 0  a40 40 0 0 0 80 0 Z"/>
<animateMotion xlink:href="#Mercure" dur="0.788414" begin="0s" fill="freeze" repeatCount="indefinite" rotate="auto" >
<mpath xlink:href="#motionPathMercure" />
</animateMotion >
<text x="1040" y="1000" fill="black" >Mercure</text>
<circle id="Venus" cx="1073.33" cy="1000" r="17" fill="url(#greyball)" transform="scale(-1,1)translate(-1073.33,-1000)"/>
<path id="motionPathVenus" fill="none" stroke="black" d="M 1073.33 1000 a 73 73 0 0 0 -146 0  a73 73 0 0 0 146 0 Z"/>
<animateMotion xlink:href="#Venus" dur="1.95712" begin="0s" fill="freeze" repeatCount="indefinite" rotate="auto" >
<mpath xlink:href="#motionPathVenus" />
</animateMotion >
<text x="1073.33" y="1000" fill="black" >Venus</text>
<circle id="Terre" cx="1100" cy="1000" r="18" fill="url(#blueball)" transform="scale(-1,1)translate(-1100,-1000)"/>
<path id="motionPathTerre" fill="none" stroke="black" d="M 1100 1000 a 100 100 0 0 0 -200 0  a100 100 0 0 0 200 0 Z"/>
<animateMotion xlink:href="#Terre" dur="3.11648" begin="0s" fill="freeze" repeatCount="indefinite" rotate="auto" >
<mpath xlink:href="#motionPathTerre" />
</animateMotion >
<text x="1100" y="1000" fill="black" >Terre</text>
<circle id="Mars" cx="1153.33" cy="1000" r="10" fill="url(#redball)" transform="scale(-1,1)translate(-1153.33,-1000)"/>
<path id="motionPathMars" fill="none" stroke="black" d="M 1153.33 1000 a 153 153 0 0 0 -306 0  a153 153 0 0 0 306 0 Z"/>
<animateMotion xlink:href="#Mars" dur="5.91724" begin="0s" fill="freeze" repeatCount="indefinite" rotate="auto" >
<mpath xlink:href="#motionPathMars" />
</animateMotion >
<text x="1153.33" y="1000" fill="black" >Mars</text>
<circle id="Jupiter" cx="1520" cy="1000" r="200" fill="url(#yellowball)" transform="scale(-1,1)translate(-1520,-1000)"/>
<path id="motionPathJupiter" fill="none" stroke="black" d="M 1520 1000 a 520 520 0 0 0 -1040 0  a520 520 0 0 0 1040 0 Z"/>
<animateMotion xlink:href="#Jupiter" dur="36.9547" begin="0s" fill="freeze" repeatCount="indefinite" rotate="auto" >
<mpath xlink:href="#motionPathJupiter" />
</animateMotion >
<text x="1520" y="1000" fill="black" >Jupiter</text>
<circle id="Saturne" cx="1946.67" cy="1000" r="171" fill="url(#yellowball)" transform="scale(-1,1)translate(-1946.67,-1000)"/>
<path id="motionPathSaturne" fill="none" stroke="black" d="M 1946.67 1000 a 946 946 0 0 0 -1892 0  a946 946 0 0 0 1892 0 Z"/>
<animateMotion xlink:href="#Saturne" dur="90.7737" begin="0s" fill="freeze" repeatCount="indefinite" rotate="auto" >
<mpath xlink:href="#motionPathSaturne" />
</animateMotion >
<text x="1946.67" y="1000" fill="black" >Saturne</text>
<line x1="nan" y1="nan" x2="nan" y2="nan" stroke="black" />
<line x1="nan" y1="nan" x2="nan" y2="nan" stroke="black" />
  

<defs>
    <radialGradient id="redball" cx="30%" cy="30%" r="100%" fx="30%" fy="30%">
      <stop offset="0%" style="stop-color:rgb(255,250,250)" />
      <stop offset="3%" style="stop-color:rgb(255,250,250)" />
      <stop offset="7%" style="stop-color:rgb(255,160,160)" />
      <stop offset="70%" style="stop-color:rgb(255,0,0)" />
      <stop offset="100%" style="stop-color:rgb(255,0,0)" />
    </radialGradient>
    <radialGradient id="greenball" cx="30%" cy="30%" r="100%" fx="30%" fy="30%">
      <stop offset="0%" style="stop-color:rgb(250,255,250)" />
      <stop offset="3%" style="stop-color:rgb(250,255,250)" />
      <stop offset="7%" style="stop-color:rgb(160,255,160)" />
      <stop offset="70%" style="stop-color:rgb(0,255,0)" />
      <stop offset="100%" style="stop-color:rgb(0,255,0)" />
    </radialGradient>
    <radialGradient id="blueball" cx="30%" cy="30%" r="100%" fx="30%" fy="30%">
      <stop offset="0%" style="stop-color:rgb(250,250,255)" />
      <stop offset="3%" style="stop-color:rgb(250,250,255)" />
      <stop offset="7%" style="stop-color:rgb(160,160,255)" />
      <stop offset="70%" style="stop-color:rgb(0,0,255)" />
      <stop offset="100%" style="stop-color:rgb(0,255,0)" />
    </radialGradient>
    <radialGradient id="yellowball" cx="30%" cy="30%" r="100%" fx="30%" fy="30%">
      <stop offset="0%" style="stop-color:rgb(255,255,250)" />
      <stop offset="3%" style="stop-color:rgb(255,255,250)" />
      <stop offset="7%" style="stop-color:rgb(255,255,160)" />
      <stop offset="70%" style="stop-color:rgb(255,255,0)" />
      <stop offset="100%" style="stop-color:rgb(255,255,0)" />
    </radialGradient>
    <radialGradient id="greyball" cx="30%" cy="30%" r="100%" fx="30%" fy="30%">
      <stop offset="0%" style="stop-color:rgb(250,250,250)" />
      <stop offset="3%" style="stop-color:rgb(250,250,250)" />
      <stop offset="7%" style="stop-color:rgb(160,160,160)" />
      <stop offset="70%" style="stop-color:rgb(100,100,100)" />
      <stop offset="100%" style="stop-color:rgb(100,100,100)" />
    </radialGradient>
  </defs>


</svg>
